<svg width="60" height="60" viewBox="0 0 60 60" fill="none" xmlns="http://www.w3.org/2000/svg">
<circle cx="30" cy="30" r="30" fill="#00C4E6"/>
<path d="M21.7 42.6H24.2V38.2H28.6V35.7H24.2V31.3H21.7V35.7H17.3V38.2H21.7V42.6ZM32.45 40.85H42.5V38.4H32.45V40.85ZM32.45 35.5H42.5V33H32.45V35.5ZM34.3 27.35L37.35 24.3L40.4 27.35L42.2 25.55L39.15 22.5L42.2 19.45L40.4 17.65L37.35 20.7L34.3 17.65L32.5 19.45L35.55 22.5L32.5 25.55L34.3 27.35ZM18.05 23.75H27.85V21.25H18.05V23.75ZM15 48C14.2 48 13.5 47.7 12.9 47.1C12.3 46.5 12 45.8 12 45V15C12 14.2 12.3 13.5 12.9 12.9C13.5 12.3 14.2 12 15 12H45C45.8 12 46.5 12.3 47.1 12.9C47.7 13.5 48 14.2 48 15V45C48 45.8 47.7 46.5 47.1 47.1C46.5 47.7 45.8 48 45 48H15ZM15 45H45V15H15V45ZM15 15V45V15Z" fill="#242424"/>
</svg>
